<?xml version="1.0" encoding="utf-8"?>
<!-- Generator: Adobe Illustrator 27.8.1, SVG Export Plug-In . SVG Version: 6.00 Build 0)  -->
<svg version="1.1" id="Layer_1" xmlns="http://www.w3.org/2000/svg" xmlns:xlink="http://www.w3.org/1999/xlink" x="0px" y="0px"
	 viewBox="0 0 1920 600" style="enable-background:new 0 0 1920 600;" xml:space="preserve">
<style type="text/css">
	.st0{fill:#FFFFFF;}
</style>
<path class="st0" d="M1857.2,305c-0.1-3.6-3.5-7.9-5.8-7.5c-5.1,1-0.4,5-0.7,7.7c-0.2,2.6,0.4,5.2,0.3,7.8
	c-0.4,15.5-8.1,27.5-17.5,39.2c-13,16.2-28.9,28-47.9,36.1c-3.8,1.6-9,3.1-11.4-0.2c-2.7-3.7,0-7.9,3.8-11
	c8.8-7.1,19.5-10.4,29-15.9c8.7-5,17.4-9.9,25.2-16.1c3.3-2.6,5.5-6.5,3.7-10.7c-1.6-3.9-5.8-3.1-9.2-3c-12.1,0.2-20.2,7.9-29,14.8
	c-13.3,10.5-22.2,26.3-40.8,30.4c-16,3.5-31.2,10.5-47.7,11.9c-7,0.6-17.7,2.3-19.8-4.2c-2.3-7.1,8.2-11.3,13.3-16.6
	c0.7-0.7,2.1-0.8,3.1-1.3c21-8.5,41.4-18.2,59.1-32.6c2.6-2.1,6.8-4.6,4.6-8.2c-2.4-3.8-7.3-1.8-10.3-0.2
	c-15.3,8.2-31.1,15.8-44.8,26.5c-16.2,12.6-34.7,19.6-54.3,24.3c-3.2,0.8-8,1.9-9.7-0.9c-2.1-3.5,2.4-5.9,4.6-8.3
	c2.1-2.4,4.7-4.3,7-6.5c9.3-8.4,18.6-16.7,27.7-25.3c2.3-2.1,4.6-5.1,2.6-8.4c-1.9-3.1-4.7-1.2-6.8,0.1c-22.3,13.7-43.6,28.9-65,44
	c-7.9,5.5-15.3,12.1-25.9,16c4.3-9.3,10.9-14.8,16.5-21.1c9.6-10.7,20.1-20.5,30.6-30.4c2-1.9,7.5-4.8,3.5-9.1
	c-3.3-3.6-6.1,0.5-9,2.1c-26.1,14.3-49.2,33.2-74.9,48c-7.3,4.2-14.2,10.4-24.7,8.8c10.3-13.4,23.7-21.9,36.2-31.2
	c13.6-10.1,28.7-18.3,41.6-29.5c2-1.7,4.8-3.1,3.2-6.1c-2-3.8-5-1.5-7.6-0.4c-7.7,3.2-14.2,8.3-21.2,12.6
	c-23,14.2-45.7,29.1-70.2,40.5c-8.8,4.1-18.2,7.1-27.5,10.3c-2.3,0.8-5.8,1.5-7.3-0.7c-1.5-2.2,0.8-4.9,2.1-7
	c3.3-5.4,6.9-10.4,11.1-15.2c4.5-5,9-10.4,11.5-17.1c5-13.2,13.3-24.5,20.3-36.5c6.1-10.4,9.8-21.9,12.7-33.7
	c0.9-3.6-0.1-6.8-3.5-9.1c-3.1-2.1-5.1-0.4-7.8,1.1c-17.7,9.6-32.7,22.7-47.1,36.7c-8,7.7-13.7,17.9-24,23.1
	c-13.2,6.7-25,15.6-37.2,23.8c-9,6-18,12-27.1,18.1c14.8-19.4,28.8-38.6,38.6-60.7c7.6-17.1,10.7-34.7,7.5-53.1
	c-2-11.6-14.8-16.7-24.5-9.8c-11.6,8.3-16.4,21.4-22.2,33.5c-7.4,15.5-13.6,31.5-20.7,47.2c-7,15.6-14,31.3-21.6,46.7
	c-6.6,13.2-14,26-21.2,39.3c-1-1.8-1.6-3.1-2.4-4.3c-7.3-10.5-8.3-22.7-8.3-34.8c0-8.1,8.3-11,13-16c26.7-27.6,47-59.3,60-95.3
	c9.2-25.7,16.4-52.1,24.3-78.2c2.2-7.5,3.7-15.2,5.3-22.8c1-4.5,0.7-8.5-3.9-11.3c-4.7-2.8-8.6,0.6-10.8,2.8
	c-5.3,5.3-10,11.6-13.9,18.1c-9,15.2-17.2,30.9-26,46.2c-9.4,16.3-18.3,32.8-26.3,49.9c-6.2,13.2-12,26.6-18.3,39.8
	c-0.3,0.7,0,4-2.6,2.3c-10.8-7.2-19.8-0.6-27.4,5c-19.4,14.3-36.7,30.9-50.4,51c-7.6,11-14.5,22.7-12.8,36.3
	c0.9,7.6-0.8,11-7.1,14.6c-7.9,4.6-15.2,9.9-24.5,11.6c-11.6,2.1-18.1-3.5-17.1-14.9c0.8-9.6,6.7-17.2,12.7-23.7
	c12.6-13.8,26.1-26.8,40-39.2c4.3-3.9,8.1-10,15.4-9.8c1.8,0.1,4,0.4,4.2-1.7c0.3-2.7-2.5-2.7-4.2-3.3c-3.7-1.1-6.7,1.2-9.3,3.1
	c-5.1,3.7-10,7.7-14.6,12c-17.4,16-35.8,31.1-47.2,52.5c-4.1,7.6-6.8,15.9-1.7,23.6c5.7,8.7,16.8,11.5,27.3,7.8
	c5.4-1.9,10.7-3.8,15.6-7c9-6,17-12.7,30.2-9.3c11.8,3,21-7.4,30-14.1c10.3-7.5,19.8-16.1,30.2-24.7c1.7,13.3,5.6,24.6,12,35
	c5.4,8.7,12,9.7,16.7,1.1c4.3-8,10.5-10.4,18.1-13.9c21.9-10.2,40.5-26.2,60.5-39.6c11.6-7.7,23.2-15.3,34.8-23
	c-1.7,7.4-4.4,13.3-6.6,19.5c-3,8.4-3.9,16.4,3.2,23c2.2,2.1,1.6,2.8,0.3,4.7c-1.4,2-2,4.5,0.1,6.3c2.4,2,4.2-0.2,6.1-1.4
	c7.3-4.5,14.6-8.9,22.7-12.1c-1,12.8,5.1,17.6,17.1,13.2c9.6-3.5,19-7.6,28.3-12c8.8-4.1,17.2-8.7,25.8-13.1
	c-4.8,5.9-10,10.9-15,16.2c-3.4,3.6-3.9,7.6-2.5,11.1c1.5,3.9,6.2,3.1,9.9,3c6.8-0.2,11.7-4,17.2-7.3c14.9-9,29.8-17.9,43.7-28.4
	c5.2-3.9,10.7-8.2,19.7-11.1c-12.9,12.2-23.8,22.7-31.4,36c-1.8,3.1-5.8,6.6-1.4,10.7c4.1,3.9,8,2.1,11.7-0.5
	c13.4-9.3,26.5-18.9,40-27.8c7.3-4.8,13.5-11.5,20-14.1c-4.4,5.1-9.6,11.5-15.1,17.6c-3.1,3.4-3.9,7.3-2.7,11.2
	c1.1,3.7,5,3.5,8.1,3.8c5.5,0.5,10.9,0,16.3-1.9c5.4-1.8,11-3,18.1-5c-4.4,4.4-7.8,8-5.4,12.5c2.7,5,7.9,7.8,13.5,8
	c11.8,0.3,23.4,0.6,35.2-3.1c12.5-3.9,24.4-9.4,37.3-12.2c-1.9,12.9,0.4,15.6,13.2,15.5c10.7,0,18.8-6.1,27.3-11.4
	c22.7-13.9,39-33,48.5-57.9C1858.3,319.4,1857.4,312.2,1857.2,305z M1830.3,337c-10.6,12-24.6,15.9-37.2,25
	C1801.2,349.6,1817.5,338.6,1830.3,337z M1412.9,154.3c-16.8,70.2-34,140.1-90.5,191.6C1337.2,274.7,1375.6,214.7,1412.9,154.3z
	 M1237.9,400.9c-2.5-15.6,3.4-27.6,10.9-37.9c15.6-21.4,34-40.3,57.3-53.6c2.2-1.3,5-3.4,7.1-1.8c2.3,1.9-0.1,4.7-0.8,7.1
	c-7.9,25.2-26.2,42.7-44.5,60.1C1258.6,383.6,1248.6,391.6,1237.9,400.9z M1310.8,357.6c-1.5,6.7-8.3,9.8-12.9,13.9
	c-11.5,10.4-24,19.8-36.4,29.1c-4.5,3.3-9.8,5.9-16.5,4.8c12.8-11.8,25.4-23.1,37.7-34.7c12.4-11.8,24.1-24.3,32.3-39.7
	C1313.6,339.9,1312.7,348.8,1310.8,357.6z M1372.5,375.5c-6.2,5.7-13.4,10.3-20.1,15.4c-0.5-0.5-1-0.9-1.6-1.4
	c5.5-11.5,10.9-23.2,16.6-34.6c10-20.3,17.9-41.5,27-62.1c6.5-14.5,11.9-29.7,22.5-42.2c3-3.6,6.3-6.6,11-5.2
	c5.2,1.5,7.6,5.9,8.2,11.2c1.6,14.7-1.1,28.7-7.3,42.1C1415,327.9,1396.1,353.5,1372.5,375.5z M1534.4,269.4
	c-3.2,10.4-2.5,20.4-12.4,26.8c-3.8,2.5-4.5,9.7-6.8,14.6c-4.1,8.8-9.6,16.7-15.3,24.6c-0.9,1.2-2.7,1.8-4.4,2.9
	c-1.2-23.5-1.4-23.9-17.6-23.8C1494.9,296.5,1511.8,280.6,1534.4,269.4z M1468.2,365.7c-1.1,0.9-2.3,1.6-3.4,2.5
	c-3.2,2.5-6,7-11,3.7c-4.7-3.1-4.1-7.9-3.1-12.6c2.5-12.4,9.1-23.1,16.8-32.6c4.3-5.4,12.6-7.1,20-5.7c5.1,0.9,1.4,5.9,3.2,9.5
	C1488,344.9,1479.9,356.4,1468.2,365.7z M742.9,461.7c-2.6,0.1-4.8,1.5-7.2,2.5c-12.4,5.3-24.5,11.3-38.9,9.9
	c-16-1.5-26-11.5-25.1-27c0.8-12.7,7.2-23.4,13.7-33.9c3.7-6.1,7.6-12.8,13.1-16.9c9.6-7,20.7-11.9,31.1-17.9
	c18.1-10.5,35.3-22.2,50.3-36.9c3.4-3.3,7.3-7.9,3.4-13c-3.9-5.1-8.9-2.2-13.4-0.1c-24.4,11.3-43.4,29.9-63.3,47.3
	c-9.6,8.4-16.6,19.6-29.7,24.1c-9.6,3.3-19.1,4.4-31.2,3.9c4.5-3.7,6.9-6.2,9.8-8.5c11.4-9.4,24.4-17,33.9-28.7c2-2.5,5-5,2.2-8.2
	c-2.7-3-6.1-1.6-9.5-0.2c-12.4,5-22.7,13.2-32.5,21.8c-6.1,5.4-12.4,11.5-13.9,20c-0.7,3.9-2.2,6-5.4,8
	c-12.3,7.9-24.3,16.1-38.8,21.5c1.1-1.7,1.8-3.1,2.9-4.3c19-20.9,38.2-41.6,57.1-62.7c2.3-2.6,7.6-5.8,3.4-10.1
	c-3.3-3.3-6.6,1.5-10.1,2.2c-0.5,0.1-1,0.6-1.5,0.9c-16.4,12.7-32.7,25.5-49.1,38.2c-10.9,8.4-21.5,17.4-36.1,23.2
	c16.8-20.2,32.7-38.8,49.6-56.7c2.5-2.7,4.7-5.2,2-10c-23.4,22.8-44.9,47.7-75.2,62.8c0.4-5.2,4.5-6.2,6.6-8.8
	c16.3-20.1,32.2-40.6,50.9-58.6c4-3.8,7.9-7.6,11.8-11.4c1.8-1.8,2.9-4.3,1.2-6.2c-2.3-2.5-3.8,0.1-5.3,1.8c-1.9,2.1-4.5,3-6.6,5.2
	c-12.3,12.7-24.7,25.5-38,37.1c-23.9,20.7-48.4,40.9-75.5,57.4c-4.8,2.9-9.1,7.8-16.6,7.8c17.7-21.8,38.4-39.2,57-58.7
	c6.6-6.9,14-13.1,20.2-20.4c1.6-1.8,6-5.6,1.9-8.9c-2.8-2.2-5.2,1-7.3,3c-4.1,4-8.2,7.9-12.1,12c-23.1,24.3-47.6,47-75.8,65.4
	c-8,5.2-16.5,9.5-24.8,14.3c16.8-18,34.6-34.4,50.7-52.5c9.5-10.6,19.6-20.6,29.7-30.6c2.9-2.9,3.6-6.5,2.1-9.3
	c-2.4-4.3-5.5-0.5-7.9,1c-22.9,14.1-43.6,31.4-65.9,46.3c-10.5,7-20.9,13.9-31.4,20.9c-0.7-0.8-1.3-1.5-2-2.3
	c15.3-14.8,30.2-30,46-44.2c13.3-11.9,22.6-28.7,41.2-34.3c0.3-0.1,0.5-0.3,0.7-0.4c1.9-1,2.1-2.7,1.8-4.5c-0.3-2.2-2.1-2.5-3.9-2.6
	c-3.6-0.3-6.7,1.1-10,2.4c-9.9,3.8-19.9,8.2-30.5,9.1c-9.7,0.9-18.8,4-27.6,7c-28.8,9.9-56.8,21.6-81.7,39.7c-6,4.4-12.9,6.3-7.3,18
	c4.3,8.8,6.7,4.4,10.9,3.1c1-0.3,2.1-1.1,1.8-2.6c-0.3-1.3-1.5-2.2-2.5-1.6c-5.4,2.7-4-4.5-7.2-4.9c0.8-2.9,3-4.5,5.4-6.1
	c19.8-14.4,41.9-24.6,64.6-33.2c8.2-3.1,16-8.7,26.9-8.4c-7.5,6.2-15.2,9.3-22.2,13.6c-21.1,13.1-40.6,28.2-58.4,45.5
	c-11.7,11.4-23.2,23.2-32.5,36.8c-4.1,6-5.7,12.9-1.3,18.5c4.9,6.4,13.1,6.1,20,3.3c7-2.9,14.4-6.3,19.9-11.5
	c20.6-19.3,46.3-31,69.1-47c13-9.1,26.4-17.8,39.1-27.5c8.6-6.5,17.8-12.3,26.7-18.3c-3.4,5.1-7.5,9.5-11.7,13.7
	c-13.4,13.5-25.7,28-40.5,40.3c-7.4,6.1-13.8,13.3-20.6,20.1c-2.6,2.6-4.5,5.8-2.5,9.3c2.2,3.8,5.7,1.5,8.6,0.6
	c8.3-2.3,15.6-6.6,22.8-11.2c4.6-2.9,8.4-8.3,14.8-8c1.2,4.8-5.4,10.9,3.3,12.6c4.2,0.8,8.7,0.3,12.5-2.3
	c17.3-12.1,34.9-23.8,51.4-36.9c5.1-4.1,9.4-9.8,17.5-12.7c-5.3,6.6-9.7,11.5-13.4,16.9c-2,3-8.2,5.6-4.4,9.8
	c3.4,3.8,8.7,0.7,12.9-1c1.6-0.6,2.7-2.1,4.2-2.9c4.9-2.4,9-6.5,15.1-8c-1.6,4.3-5.5,6-5.8,10.2c-0.3,4.8,1.7,6.9,6,5.7
	c4.7-1.3,9.6-2.8,13.4-5.5c12-8.6,23.5-17.9,35.3-26.8c9.6-7.2,18.4-15.3,29.4-20.7c-16.3,19.1-32.3,38.3-50.5,55.6
	c-2.8,2.6-6,6.3-4.4,9.6c1.9,4,6.7,1.3,10.2,1.2c0.6,0,1.1-0.3,1.6-0.5c15-7.6,30-15.3,43.3-25.8c1.9-1.5,3.6-3.5,6-2.4
	c13.4,5.9,25.9-0.2,39.1-2.4c-6,8.6-10,18-14.1,27.3c-10,23.1,4.9,45.1,30.1,46.3c17.6,0.8,32.5-6.4,47.8-12.9
	c1.4-0.6,2.6-1.5,2.3-3.2C746,461.4,744.2,461.7,742.9,461.7z M776.7,334.5c-16.2,18.9-37.3,31.3-58.6,43.1
	C735.6,360.5,753,343.1,776.7,334.5z M360.6,433.3c-4,3.7-10.9,6.9-7,14.7c0.9,1.8-0.8,1.5-1.5,2c-7.6,6.1-15.2,12-25,14.4
	c-3.5,0.9-7.6,1-9.7-1.7c-2.2-2.7,0.6-5.7,2.4-8.4c12.9-19.7,30.3-35.2,47.7-50.7c25.5-22.7,55.4-38.6,85.3-54.3
	c0.9-0.5,2.2-0.4,6-0.9c-26.8,21.5-49.5,44.1-74,64.8C376.8,420,368.3,426.2,360.6,433.3z M685.2,364
	c-13.7,13.5-27.6,23.2-42.4,34.4C651.1,384.5,670,368.9,685.2,364z M1215.1,147.3c-25.2,13-50.2,26.4-75.3,39.6
	c-1.2,0.7-2.6,1.1-3.9,1.6c-6.5,2.4-11.1,5.4-8.3,13.8c1.2,3.7,0.3,8.1,0.4,12.1c1,63.8-1.3,127.6,1.7,191.4
	c0.6,13.6,2.2,27.1,3.3,40.7c0.2,2.4,1,6-2.8,6.1c-3.3,0.1-2.4-3.5-2.8-5.4c-3.8-16.1-6.1-32.5-6.2-49.1
	c-0.3-64.1-0.6-128.2-0.8-192.3c0-2.6,0.3-5.2,0.5-9.4c-23.5,12.8-45.8,25-68.1,37.1c-11.5,6.3-22.9,12.7-34.6,18.7
	c-5.2,2.7-11.9,5.1-15.9,0.3c-4.3-5.2-0.4-11.6,3-16.7c7.5-11,17.4-20,26.8-29.3c28.6-27.9,57.5-55.5,85.9-83.6
	c9.2-9.1,18.5-18.1,28.3-26.4c8.6-7.2,15.4-6.4,21.7,2.4c-0.8,0.3-1.9,1.2-2.3,0.9c-8.9-6.4-15-0.3-20.6,5.1
	c-15.8,15.1-30.8,31.1-46.9,45.9c-15,13.8-29.7,28-43.6,42.9c-15.1,16.3-33.3,29.8-44.7,50.1c8.6,0.5,14.2-5.5,20.6-8.9
	c23.7-12.6,46.7-26.6,70.6-39.1c27.3-14.3,54.1-29.6,81.9-42.8c17.3-8.2,33.9-17.8,51-26.4c21.7-10.9,42.9-22.8,65.1-32.7
	c18-8,35.4-17.5,53.1-26.3c10-5,20-9.8,30.1-14.7c0.5-0.2,1.1-0.3,1.7-0.4c3.3-0.3,7.4-2.3,9.1,2.1c1.5,4-2.9,5.9-5.2,6.8
	c-5.8,2.1-10.8,5.2-16.2,7.9c-27.3,13.6-54.9,26.9-82.2,40.4C1264.5,122.3,1239.7,134.6,1215.1,147.3z M326.3,315.7
	c-14.5,26.9-28.4,54.2-45,79.9c-11.1,17.2-21.1,35.1-32.6,51.9c-11.7,17.1-25.2,33.1-37,50.1c-8.5,12.2-16.5,24.9-20.8,39.3
	c-0.5,1.5-2.3,2.8-1.1,4.7c1,1.6,5.2,1.8,2.6,5c-1.4,1.7-3.9,1.3-5.7,0.6c-3.3-1.2-5.5-3.9-4.9-7.3c1.1-5.6,2.4-11.2,4.7-16.5
	c10.8-24.3,26.9-45.1,42.2-66.5c16.3-22.7,30.6-46.7,45.5-70.2c20.6-32.6,38.1-66.8,56.6-100.6c13.2-24.1,25-48.9,34.3-74.9
	c8.4-23.6,4.7-29.2-19.8-28.1c-9.4,0.4-18.3,3.6-26.8,6.6c-33.8,11.7-67.5,23.8-100.2,38.7c-25.2,11.6-49.6,24.7-74.2,37.6
	c-19.1,10-37,22.5-55.5,33.8c-6.1,3.7-13.9,4.4-18.2,11.5c-1.5,2.4-4.8-0.2-6.7-1.8c-2.5-2.1-0.3-4,1-4.9c5.2-3.5,10.6-6.6,15.9-9.8
	c13.8-8.5,27.4-17.2,41.3-25.6c20.5-12.4,41.5-23.8,63.1-34.2c13.7-6.6,27.1-13.6,41.3-19.1c19.5-7.5,38.6-16,58.4-22.5
	c11.7-3.8,23.5-7.7,35.1-11.8c10.8-3.8,21.8-5.5,32.9-7.1c17.4-2.4,23.1,2.9,23.2,20.6c-0.1,13.8-4.3,26.7-9.5,39.2
	C354.9,262.4,340.6,289.1,326.3,315.7z M845.8,413.5c-1.2,3-3.2,0.6-5,0.1c-10.2-3.1-20.4-5.9-30.5-9.2c-3.1-1-5.7-0.7-8.2,0.7
	c-7.9,4.2-16.4,3.4-24.7,2.2c-9.7-1.4-12.7-7.6-9.4-16.9c3.8-10.8,11.1-19.5,17.5-28.6c19.8-28,34.6-57.8,39.8-92.1
	c1.3-8.4,5.1-16.5,7.7-24.7c0.6-2,2.1-2.7,4-2.2c1.8,0.5,1.9,2,1.4,3.5c-7.8,23.8-9.6,49.3-20.1,72.2c-10,21.7-22.8,41.9-37.1,61.1
	c-1.4,1.8-2.5,3.9-3.5,5.9c-7.7,15.5-6.6,17.3,11,17.2c2,0,4.1,0.1,6.1,0c2-0.2,4.5,0.1,5.4-2c0.9-2.3-1.2-3.5-2.9-4.7
	c-3.7-2.5-2.9-7.2-1.4-9.2c2.3-3.1,3.8-7.8,8.6-8.5c1.1-0.2,2.5-0.1,2.8,1.2c0.4,1.7-0.4,3-1.6,4.5c-5.5,6.3-3.9,8.7,3.5,12.2
	c10.8,5.1,21.9,8.9,32.9,13.3C843.6,410.2,846.8,410.8,845.8,413.5z M188,480.3c-8.3-34.3-14.2-68.9-18.2-104
	c-3.3-28.7-3.4-57.7-9.4-86.5c-9.5,5.1-4.7,15.5-9.1,22.6c-4.6-8.6-2-22.9,5.1-27c4.2-2.5,8.9-2.1,10,3.9
	c2.2,12.2,5.4,24.2,5.6,36.8c0.2,18,4.6,35.6,5.7,53.5c2,33.6,9.6,66.2,16.6,99c0.7,3.4,3.2,8.9-1.1,9.9
	C189.3,489.5,188.8,483.5,188,480.3z M901.5,293.4c0.8,2-0.1,3.3-2,4.1c-5.3,2.2-10.6,4.3-15.8,6.6c-14.8,6.7-29.5,13.6-44.5,20
	c-6.7,2.9-12.7,6.7-18.5,10.8c-1.6,1.1-3.1,2.4-4.4,3.3c-1.8-0.4-2.9-0.7-3.1-2.1c-0.3-1.7,1.1-2.5,2.1-3.5
	c9.1-8.5,20.5-13.2,31.5-18.4c11.1-5.3,22.6-9.5,33.6-14.9c5.5-2.7,11.2-4.3,16.9-6.4C898.6,292.5,900.4,290.8,901.5,293.4z"/>
</svg>
